<?xml version="1.0" encoding="iso-8859-1"?>
<!-- Generator: Adobe Illustrator 19.1.0, SVG Export Plug-In . SVG Version: 6.00 Build 0)  -->
<svg version="1.1" id="Capa_1" xmlns="http://www.w3.org/2000/svg" xmlns:xlink="http://www.w3.org/1999/xlink" x="0px" y="0px"
	 viewBox="0 0 319.202 319.202" style="enable-background:new 0 0 319.202 319.202;" xml:space="preserve">
<g>
	<path d="M159.598,67.202c64.159,0,124.796,69.056,143.453,92.405c-18.657,23.342-79.294,92.399-143.453,92.399
		c-64.153,0-124.79-69.056-143.447-92.399C34.808,136.259,95.438,67.202,159.598,67.202 M159.598,54.349
		C77.668,54.349,3.49,154.716,0,159.504v0.193c3.49,4.788,77.668,105.156,159.598,105.156c81.936,0,156.114-100.368,159.604-105.156
		v-0.193C315.712,154.716,241.533,54.349,159.598,54.349L159.598,54.349z M159.598,92.858c36.806,0,66.749,29.943,66.749,66.743
		c0,36.806-29.943,66.749-66.749,66.749s-66.743-29.949-66.743-66.749S122.791,92.858,159.598,92.858 M159.598,80.004
		c-43.96,0-79.596,35.637-79.596,79.596c0,43.966,35.637,79.603,79.596,79.603s79.596-35.637,79.596-79.603
		C239.194,115.641,203.557,80.004,159.598,80.004L159.598,80.004z M159.598,126.31c-18.387,0-33.297,14.91-33.297,33.291
		c0,18.394,14.904,33.304,33.297,33.304s33.304-14.904,33.304-33.304C192.895,141.214,177.985,126.31,159.598,126.31z"/>
</g>
<g>
</g>
<g>
</g>
<g>
</g>
<g>
</g>
<g>
</g>
<g>
</g>
<g>
</g>
<g>
</g>
<g>
</g>
<g>
</g>
<g>
</g>
<g>
</g>
<g>
</g>
<g>
</g>
<g>
</g>
</svg>
