<?xml version="1.0" ?><!DOCTYPE svg  PUBLIC '-//W3C//DTD SVG 1.1//EN'  'http://www.w3.org/Graphics/SVG/1.1/DTD/svg11.dtd'><svg height="64px" id="ICONS" style="enable-background:new 0 0 64 64;" version="1.1" viewBox="0 0 64 64" width="64px" xml:space="preserve" xmlns="http://www.w3.org/2000/svg" xmlns:xlink="http://www.w3.org/1999/xlink"><g><polyline points="   5,59 5,5 59,5  " style="fill:none;stroke:#FF6D00;stroke-width:2;stroke-linecap:round;stroke-linejoin:round;stroke-miterlimit:10;"/><line style="fill:none;stroke:#FF6D00;stroke-width:2;stroke-linecap:round;stroke-linejoin:round;stroke-miterlimit:10;" x1="25.665" x2="5" y1="54.89" y2="5"/><line style="fill:none;stroke:#FF6D00;stroke-width:2;stroke-linecap:round;stroke-linejoin:round;stroke-miterlimit:10;" x1="5" x2="54.89" y1="5" y2="25.664"/><line style="fill:none;stroke:#FF6D00;stroke-width:2;stroke-linecap:round;stroke-linejoin:round;stroke-miterlimit:10;" x1="48" x2="5" y1="48" y2="5"/><path d="   M12.02,21.96c-0.26-0.69-0.739-1.3-1.38-1.729c-1.37-0.921-3.18-0.79-4.42,0.3C5.47,21.2,5.05,22.11,5,23.05   c-0.01,0.141-0.01,0.271,0,0.4" style="fill:none;stroke:#FF6D00;stroke-width:2;stroke-linecap:round;stroke-linejoin:round;stroke-miterlimit:10;"/><path d="   M16.57,32.91c-0.141-0.49-0.33-0.97-0.59-1.42c0-0.01-0.011-0.01-0.011-0.021c-0.05-0.08-0.09-0.16-0.149-0.239   c-1.37-2.141-3.971-3.16-6.44-2.511C6.92,29.36,5.15,31.51,5,34.06c-0.01,0.2-0.01,0.4,0,0.601" style="fill:none;stroke:#FF6D00;stroke-width:2;stroke-linecap:round;stroke-linejoin:round;stroke-miterlimit:10;"/><path d="   M5,43.49c1.65-3.48,5.3-5.67,9.25-5.38c2.02,0.149,3.88,0.92,5.36,2.149" style="fill:none;stroke:#FF6D00;stroke-width:2;stroke-linecap:round;stroke-linejoin:round;stroke-miterlimit:10;"/><path d="   M17.976,17.982c-0.504-0.538-1.181-0.918-1.937-1.069c-1.618-0.327-3.24,0.487-3.969,1.968c-0.437,0.906-0.477,1.908-0.163,2.795   c0.045,0.133,0.095,0.254,0.153,0.37" style="fill:none;stroke:#FF6D00;stroke-width:2;stroke-linecap:round;stroke-linejoin:round;stroke-miterlimit:10;"/><path d="   M26.37,26.357c-0.317-0.398-0.676-0.77-1.088-1.086c-0.004-0.009-0.014-0.004-0.018-0.014c-0.077-0.057-0.145-0.114-0.23-0.164   c-2.084-1.453-4.877-1.4-6.91,0.145c-2.027,1.533-2.84,4.195-2.004,6.609c0.068,0.189,0.145,0.373,0.23,0.555" style="fill:none;stroke:#FF6D00;stroke-width:2;stroke-linecap:round;stroke-linejoin:round;stroke-miterlimit:10;"/><path d="   M19.729,40.561c0.193-3.848,2.727-7.266,6.487-8.51c1.923-0.635,3.937-0.635,5.774-0.066" style="fill:none;stroke:#FF6D00;stroke-width:2;stroke-linecap:round;stroke-linejoin:round;stroke-miterlimit:10;"/><path d="   M21.956,12.029c-0.672-0.305-1.442-0.396-2.198-0.248c-1.62,0.318-2.808,1.691-2.913,3.338c-0.057,1.004,0.289,1.945,0.918,2.645   c0.093,0.105,0.186,0.197,0.283,0.283" style="fill:none;stroke:#FF6D00;stroke-width:2;stroke-linecap:round;stroke-linejoin:round;stroke-miterlimit:10;"/><path d="   M32.917,16.555c-0.446-0.248-0.919-0.453-1.421-0.588c-0.007-0.007-0.015,0.002-0.021-0.006c-0.093-0.023-0.178-0.051-0.276-0.063   c-2.48-0.546-5.041,0.572-6.328,2.777c-1.287,2.191-1.019,4.963,0.678,6.873c0.136,0.148,0.276,0.289,0.426,0.424" style="fill:none;stroke:#FF6D00;stroke-width:2;stroke-linecap:round;stroke-linejoin:round;stroke-miterlimit:10;"/><path d="   M32.217,32.217c-1.294-3.629-0.262-7.756,2.737-10.344c1.533-1.322,3.394-2.094,5.309-2.271" style="fill:none;stroke:#FF6D00;stroke-width:2;stroke-linecap:round;stroke-linejoin:round;stroke-miterlimit:10;"/><path d="   M23.355,5.006c-0.737-0.025-1.484,0.186-2.126,0.611c-1.375,0.914-1.946,2.637-1.414,4.199c0.332,0.949,1.012,1.686,1.86,2.092   c0.126,0.063,0.247,0.111,0.37,0.152" style="fill:none;stroke:#FF6D00;stroke-width:2;stroke-linecap:round;stroke-linejoin:round;stroke-miterlimit:10;"/><path d="   M35.214,4.992c-0.507-0.059-1.022-0.066-1.538,0C33.667,4.988,33.663,5,33.654,4.995c-0.095,0.015-0.184,0.021-0.279,0.048   c-2.501,0.445-4.438,2.459-4.784,4.988c-0.351,2.518,0.959,4.975,3.257,6.09c0.183,0.086,0.366,0.162,0.556,0.229" style="fill:none;stroke:#FF6D00;stroke-width:2;stroke-linecap:round;stroke-linejoin:round;stroke-miterlimit:10;"/><path d="   M40.561,19.729c-2.584-2.856-3.21-7.065-1.43-10.604c0.91-1.809,2.334-3.233,4.035-4.13" style="fill:none;stroke:#FF6D00;stroke-width:2;stroke-linecap:round;stroke-linejoin:round;stroke-miterlimit:10;"/><path d="   M5,53.01c1.58-4.359,5.75-7.34,10.49-7.33c2.92,0.011,5.62,1.15,7.63,3.051" style="fill:none;stroke:#FF6D00;stroke-width:2;stroke-linecap:round;stroke-linejoin:round;stroke-miterlimit:10;"/><path d="   M23.372,49.355c-0.208-4.633,2.504-8.982,6.887-10.787c2.702-1.107,5.633-1.088,8.217-0.102" style="fill:none;stroke:#FF6D00;stroke-width:2;stroke-linecap:round;stroke-linejoin:round;stroke-miterlimit:10;"/><path d="   M38.948,38.948c-1.966-4.2-1.125-9.257,2.233-12.601c2.073-2.058,4.788-3.161,7.553-3.238" style="fill:none;stroke:#FF6D00;stroke-width:2;stroke-linecap:round;stroke-linejoin:round;stroke-miterlimit:10;"/><path d="   M49.355,23.373c-3.424-3.129-4.582-8.122-2.759-12.496c1.128-2.695,3.214-4.754,5.738-5.883" style="fill:none;stroke:black;stroke-width:2;stroke-linecap:round;stroke-linejoin:round;stroke-miterlimit:10;"/></g></svg>