<?xml version="1.0" encoding="iso-8859-1"?>
<!-- Generator: Adobe Illustrator 19.1.0, SVG Export Plug-In . SVG Version: 6.00 Build 0)  -->
<svg version="1.1" id="Capa_1" xmlns="http://www.w3.org/2000/svg" xmlns:xlink="http://www.w3.org/1999/xlink" x="0px" y="0px"
	 viewBox="0 0 86 86" style="enable-background:new 0 0 86 86;" xml:space="preserve">
<g>
	<g>
		<path d="M43.016,28.562c-10.369,0-18.805,8.437-18.805,18.806s8.436,18.806,18.805,18.806c10.37,0,18.807-8.437,18.807-18.806
			S53.386,28.562,43.016,28.562z M43.016,62.173c-8.164,0-14.805-6.642-14.805-14.806s6.641-14.806,14.805-14.806
			s14.807,6.642,14.807,14.806S51.18,62.173,43.016,62.173z"/>
		<path d="M43.152,35.314c-6.721,0-12.189,5.468-12.189,12.188c0,1.104,0.896,2,2,2s2-0.896,2-2c0-4.515,3.674-8.188,8.189-8.188
			c1.104,0,2-0.896,2-2S44.257,35.314,43.152,35.314z"/>
		<path d="M76,18h-2v-2.542C74,12.227,71.483,10,68.016,10h-9C55.586,10,53,12.278,53,15.458V18H10c-5.514,0-10,4.367-10,9.881v38
			C0,71.395,4.486,76,10,76h66c5.514,0,10-4.605,10-10.119v-38C86,22.367,81.514,18,76,18z M57,15.458
			C57,13.925,58.809,14,59.016,14h9C68.348,14,70,13.957,70,15.458V18H57V15.458z M82,66c0,3.313-2.687,6-6,6H10
			c-3.313,0-6-2.687-6-6V28c0-3.313,2.687-6,6-6h66c3.313,0,6,2.687,6,6V66z"/>
	</g>
</g>
<g>
</g>
<g>
</g>
<g>
</g>
<g>
</g>
<g>
</g>
<g>
</g>
<g>
</g>
<g>
</g>
<g>
</g>
<g>
</g>
<g>
</g>
<g>
</g>
<g>
</g>
<g>
</g>
<g>
</g>
</svg>
